# xmcd
#
# Track frame offsets: 
#        150
#        14761
#        33552
#        51034
#        67413
#        85341
#        103000
#        120115
#        138458
#        157874
#
# Disc length: 2351 seconds
#
# Revision: 0
# Processed by: cddbd v1.5.2PL0 Copyright (c) Steve Scherf et al.
# Submitted via: ExactAudioCopy v0.99pb5
#
DISCID=84092d0a
DTITLE=Jetty Road - Far Away Places
DYEAR=2011
DGENRE=Country
TTITLE0=I'm A Dreamer
TTITLE1=Serves You Right
TTITLE2=Welcome To The Party
TTITLE3=Let It Out
TTITLE4=Wrong
TTITLE5=Bye Bye Baby
TTITLE6=Sweet Goodbye
TTITLE7=Dream West
TTITLE8=Look At Me
TTITLE9=Me and You
EXTD=
EXTT0=
EXTT1=
EXTT2=
EXTT3=
EXTT4=
EXTT5=
EXTT6=
EXTT7=
EXTT8=
EXTT9=
PLAYORDER=
